# xmcd CD database file
#
# Track frame offsets:
#	150
#	16891
#	38126
#	58472
#	81868
#	103404
#	127419
#	150674
#	177127
#	190522
#	215868
#	240979
#
# Disc length: 3425 seconds
#
# Revision: 1
# Processed by: cddbd v1.5.2PL0 Copyright (c) Steve Scherf et al.
# Submitted via: CDex 1.51
#
DISCID=a80d5f0c
DTITLE=Denise King Olivier Hutman Trio - No Tricks
DYEAR=2010
DGENRE=Jazz
TTITLE0=That old black magic
TTITLE1=Naalaiya
TTITLE2=No tricks Baby please
TTITLE3=Nuages
TTITLE4=Waiting for the sandman
TTITLE5=All blues
TTITLE6=Remember
TTITLE7=Besame mucho
TTITLE8=Sweetie pie
TTITLE9=Two on the planet
TTITLE10=September song
TTITLE11=I got rhythm
EXTD=YEAR: 2010
EXTT0=
EXTT1=
EXTT2=
EXTT3=
EXTT4=
EXTT5=
EXTT6=
EXTT7=
EXTT8=
EXTT9=
EXTT10=
EXTT11=
PLAYORDER=
